<?xml version="1.0" encoding="utf-8"?>
<!-- Generator: Adobe Illustrator 24.0.0, SVG Export Plug-In . SVG Version: 6.00 Build 0)  -->
<svg version="1.1" id="圖層_1" xmlns="http://www.w3.org/2000/svg" xmlns:xlink="http://www.w3.org/1999/xlink" x="0px" y="0px"
	 viewBox="0 0 48 48" style="enable-background:new 0 0 48 48;" xml:space="preserve">
<style type="text/css">
	.st0{fill:#BABABC;}
</style>
<path class="st0" d="M39.1,0H8.9C4,0,0,4,0,8.9V39c0,5,4,9,8.9,9H39c4.9,0,8.9-4,8.9-8.9V8.9C48,4,44,0,39.1,0z M44,39.1
	c0,2.7-2.2,4.9-4.9,4.9H8.9C6.2,44,4,41.8,4,39.1V8.9C4,6.2,6.2,4,8.9,4H39c2.8,0,5,2.2,5,4.9V39.1z"/>
<path class="st0" d="M24.5,11C17.6,11,12,16.6,12,23.5S17.6,36,24.5,36S37,30.4,37,23.5S31.4,11,24.5,11z M24.5,32
	c-4.7,0-8.5-3.8-8.5-8.5s3.8-8.5,8.5-8.5s8.5,3.8,8.5,8.5S29.2,32,24.5,32z"/>
<circle class="st0" cx="37" cy="11" r="3"/>
</svg>
