<?xml version="1.0" encoding="utf-8"?>
<!-- Generator: Adobe Illustrator 24.0.0, SVG Export Plug-In . SVG Version: 6.00 Build 0)  -->
<svg version="1.1" id="圖層_1" xmlns="http://www.w3.org/2000/svg" xmlns:xlink="http://www.w3.org/1999/xlink" x="0px" y="0px"
	 viewBox="0 0 48 48" style="enable-background:new 0 0 48 48;" xml:space="preserve">
<style type="text/css">
	.st0{fill:#3B5999;}
	.st1{fill:#FFFFFF;}
</style>
<g>
	<path class="st0" d="M41.9,0.1H6.1c-3.3,0-6,2.7-6,6v35.9c0,3.3,2.7,6,6,6h35.9c3.3,0,6-2.7,6-6V6.1C47.9,2.8,45.2,0.1,41.9,0.1z"
		/>
	<path class="st1" d="M33,24v-6c0-1.7,1.3-1.5,3-1.5h3V9h-6c-5,0-9,4-9,9v6h-6v7.5h6v16.5h9V31.5h4.5l3-7.5H33z"/>
</g>
</svg>
