<?xml version="1.0" encoding="utf-8"?>
<!-- Generator: Adobe Illustrator 24.0.0, SVG Export Plug-In . SVG Version: 6.00 Build 0)  -->
<svg version="1.1" id="圖層_1" xmlns="http://www.w3.org/2000/svg" xmlns:xlink="http://www.w3.org/1999/xlink" x="0px" y="0px"
	 viewBox="0 0 48 48" style="enable-background:new 0 0 48 48;" xml:space="preserve">
<style type="text/css">
	.st0{fill:url(#SVGID_1_);}
	.st1{fill:#FFFFFF;}
</style>
<linearGradient id="SVGID_1_" gradientUnits="userSpaceOnUse" x1="4.907068e-02" y1="24" x2="47.9509" y2="24">
	<stop  offset="0" style="stop-color:#FFDD55"/>
	<stop  offset="0.5" style="stop-color:#FF543E"/>
	<stop  offset="1" style="stop-color:#C837AB"/>
</linearGradient>
<path class="st0" d="M39.1,0H8.9C4,0,0,4,0,8.9V39c0,5,4,9,8.9,9H39c4.9,0,8.9-4,8.9-8.9V8.9C48,4,44,0,39.1,0z"/>
<path class="st1" d="M24,4.8C16.1,4.8,8.6,4,5.8,11.4c-1.2,3-1,7-1,12.6c0,4.9-0.2,9.6,1,12.6c2.9,7.3,10.4,6.6,18.2,6.6
	c7.6,0,15.3,0.8,18.2-6.6c1.2-3.1,1-6.9,1-12.6c0-7.5,0.4-12.4-3.2-16C36.3,4.3,31.3,4.8,24,4.8L24,4.8z M22.3,8.2
	c16.4,0,18.5-1.9,17.4,23.5c-0.4,9-7.3,8-15.7,8C8.7,39.8,8.2,39.3,8.2,24C8.2,8.5,9.4,8.2,22.3,8.2L22.3,8.2z M34.3,11.4
	c-1.3,0-2.3,1-2.3,2.3s1,2.3,2.3,2.3s2.3-1,2.3-2.3S35.5,11.4,34.3,11.4z M24,14.1c-5.5,0-9.9,4.4-9.9,9.9s4.4,9.9,9.9,9.9
	s9.9-4.4,9.9-9.9S29.5,14.1,24,14.1L24,14.1z M24,17.6c8.5,0,8.5,12.8,0,12.8C15.5,30.4,15.5,17.6,24,17.6z"/>
</svg>
