<?xml version="1.0" encoding="utf-8"?>
<!-- Generator: Adobe Illustrator 24.0.0, SVG Export Plug-In . SVG Version: 6.00 Build 0)  -->
<svg version="1.1" id="圖層_1" xmlns="http://www.w3.org/2000/svg" xmlns:xlink="http://www.w3.org/1999/xlink" x="0px" y="0px"
	 viewBox="0 0 48 48" style="enable-background:new 0 0 48 48;" xml:space="preserve">
<style type="text/css">
	.st0{fill:#BABABC;}
</style>
<g>
	<path class="st0" d="M39.1,0H8.9C4,0,0,4,0,8.9V39c0,5,4,9,8.9,9H39c4.9,0,8.9-4,8.9-8.9V8.9C48,4,44,0,39.1,0z M44,39.1
		c0,2.7-2.2,4.9-4.9,4.9H30V27.5h4.4l2.2-5.5H30v-4.4c0-1.2,1-2.2,2.2-2.2h2.2V10H30c-3.6,0-6.6,2.9-6.6,6.6V22H19v5.5h4.4V44H8.9
		C6.2,44,4,41.8,4,39.1V8.9C4,6.2,6.2,4,8.9,4H39c2.8,0,5,2.2,5,4.9V39.1z"/>
</g>
</svg>
